<svg width="500" height="500" viewBox="0 0 500 500" fill="none" xmlns="http://www.w3.org/2000/svg">
<g id="Frame 5">
<path id="JRD IT Solutions" d="M77.935 396.45C75.385 396.45 73.24 396.21 71.5 395.73C69.76 395.25 68.56 394.785 67.9 394.335L68.8 389.7V388.8C69.22 389.37 69.82 389.97 70.6 390.6C71.41 391.23 72.37 391.77 73.48 392.22C74.59 392.64 75.805 392.85 77.125 392.85C79.345 392.85 80.875 392.385 81.715 391.455C82.585 390.525 83.02 388.89 83.02 386.55V371.7C83.02 370.74 82.915 370.065 82.705 369.675C82.495 369.255 82.285 369.03 82.075 369H89.005C88.795 369 88.585 369.21 88.375 369.63C88.165 370.05 88.06 370.755 88.06 371.745V386.55C88.06 389.19 87.64 391.23 86.8 392.67C85.99 394.08 84.82 395.07 83.29 395.64C81.79 396.18 80.005 396.45 77.935 396.45ZM94.0028 396C94.2128 396 94.4078 395.79 94.5878 395.37C94.7978 394.95 94.9028 394.26 94.9028 393.3V371.7C94.9028 370.74 94.7978 370.065 94.5878 369.675C94.3778 369.255 94.1678 369.03 93.9578 369H108.718C111.508 369 113.683 369.345 115.243 370.035C116.803 370.695 117.898 371.655 118.528 372.915C119.188 374.145 119.518 375.645 119.518 377.415C119.518 378.525 119.278 379.62 118.798 380.7C118.318 381.78 117.538 382.71 116.458 383.49C115.408 384.27 113.983 384.78 112.183 385.02V385.155C114.193 385.695 115.918 386.685 117.358 388.125C118.828 389.565 120.088 391.14 121.138 392.85C121.828 393.96 122.458 394.755 123.028 395.235C123.598 395.715 124.033 395.97 124.333 396H114.883C115.243 395.97 115.528 395.775 115.738 395.415C115.978 395.025 115.903 394.395 115.513 393.525C114.883 392.085 113.983 390.81 112.813 389.7C111.673 388.56 110.233 387.675 108.493 387.045C106.753 386.385 104.683 386.055 102.283 386.055H101.788C100.858 386.055 100.318 386.13 100.168 386.28C100.018 386.43 99.9428 386.805 99.9428 387.405V393.3C99.9428 394.26 100.048 394.95 100.258 395.37C100.468 395.79 100.678 396 100.888 396H94.0028ZM101.788 382.455H107.323C109.723 382.455 111.523 382.035 112.723 381.195C113.923 380.325 114.523 379.065 114.523 377.415C114.523 376.305 114.283 375.405 113.803 374.715C113.353 373.995 112.633 373.47 111.643 373.14C110.653 372.81 109.363 372.645 107.773 372.645H101.788C100.858 372.645 100.318 372.69 100.168 372.78C100.018 372.87 99.9428 373.215 99.9428 373.815V381.24C99.9428 381.84 100.018 382.2 100.168 382.32C100.318 382.41 100.858 382.455 101.788 382.455ZM127.268 396C127.478 396 127.688 395.79 127.898 395.37C128.108 394.95 128.213 394.26 128.213 393.3V371.7C128.213 370.74 128.108 370.065 127.898 369.675C127.688 369.255 127.478 369.03 127.268 369H141.398C144.068 369 146.288 369.255 148.058 369.765C149.858 370.275 151.298 370.98 152.378 371.88C153.488 372.78 154.328 373.815 154.898 374.985C155.468 376.125 155.843 377.34 156.023 378.63C156.233 379.92 156.338 381.225 156.338 382.545C156.338 383.745 156.233 384.99 156.023 386.28C155.843 387.54 155.453 388.755 154.853 389.925C154.283 391.065 153.443 392.1 152.333 393.03C151.253 393.93 149.813 394.65 148.013 395.19C146.243 395.73 144.038 396 141.398 396H127.268ZM135.053 392.355H140.588C143.168 392.355 145.238 392.025 146.798 391.365C148.358 390.705 149.498 389.685 150.218 388.305C150.938 386.895 151.298 385.08 151.298 382.86V382.05C151.298 379.71 150.968 377.865 150.308 376.515C149.648 375.135 148.538 374.16 146.978 373.59C145.418 372.99 143.288 372.69 140.588 372.69H135.053C134.183 372.69 133.658 372.75 133.478 372.87C133.328 372.96 133.253 373.32 133.253 373.95V391.005C133.253 391.665 133.328 392.055 133.478 392.175C133.658 392.295 134.183 392.355 135.053 392.355ZM171.873 396C172.083 396 172.293 395.79 172.503 395.37C172.713 394.95 172.818 394.26 172.818 393.3V371.7C172.818 370.74 172.713 370.065 172.503 369.675C172.293 369.255 172.083 369.03 171.873 369H178.803C178.593 369 178.383 369.21 178.173 369.63C177.963 370.05 177.858 370.755 177.858 371.745V393.3C177.858 394.26 177.963 394.95 178.173 395.37C178.383 395.79 178.593 396 178.803 396H171.873ZM192.411 396C192.621 396 192.831 395.79 193.041 395.37C193.251 394.95 193.356 394.26 193.356 393.3V373.95C193.356 373.29 193.281 372.9 193.131 372.78C192.981 372.66 192.456 372.6 191.556 372.6H188.271C186.531 372.6 185.121 372.795 184.041 373.185C182.991 373.545 182.301 373.89 181.971 374.22L182.871 369.9V369H208.881V369.9L209.781 374.22C209.451 373.89 208.746 373.545 207.666 373.185C206.616 372.795 205.221 372.6 203.481 372.6H200.241C199.311 372.6 198.771 372.66 198.621 372.78C198.471 372.9 198.396 373.29 198.396 373.95V393.3C198.396 394.26 198.501 394.95 198.711 395.37C198.921 395.79 199.131 396 199.341 396H192.411ZM237.858 396.45C234.588 396.45 231.693 396.3 229.173 396C226.653 395.7 224.838 395.4 223.728 395.1V394.2L222.828 389.385C223.248 389.865 224.043 390.375 225.213 390.915C226.413 391.455 228.003 391.92 229.983 392.31C231.963 392.67 234.318 392.85 237.048 392.85C239.508 392.85 241.368 392.685 242.628 392.355C243.918 391.995 244.788 391.515 245.238 390.915C245.718 390.285 245.958 389.565 245.958 388.755C245.958 387.795 245.568 387.03 244.788 386.46C244.008 385.89 242.838 385.44 241.278 385.11C239.748 384.75 237.843 384.435 235.563 384.165C232.593 383.775 230.208 383.265 228.408 382.635C226.608 381.975 225.303 381.105 224.493 380.025C223.683 378.945 223.278 377.58 223.278 375.93C223.278 374.52 223.698 373.26 224.538 372.15C225.408 371.04 226.713 370.17 228.453 369.54C230.193 368.88 232.413 368.55 235.113 368.55C238.233 368.55 240.948 368.7 243.258 369C245.568 369.3 247.203 369.6 248.163 369.9V370.8L249.513 374.85C248.883 374.46 247.908 374.055 246.588 373.635C245.298 373.215 243.738 372.87 241.908 372.6C240.078 372.3 238.038 372.15 235.788 372.15C233.928 372.15 232.443 372.285 231.333 372.555C230.253 372.825 229.473 373.23 228.993 373.77C228.543 374.28 228.318 374.91 228.318 375.66C228.318 376.65 228.678 377.445 229.398 378.045C230.148 378.645 231.228 379.11 232.638 379.44C234.078 379.77 235.818 380.055 237.858 380.295C241.098 380.655 243.678 381.165 245.598 381.825C247.518 382.485 248.898 383.37 249.738 384.48C250.578 385.59 250.998 387.03 250.998 388.8C250.998 389.97 250.713 391.035 250.143 391.995C249.603 392.925 248.778 393.735 247.668 394.425C246.558 395.085 245.178 395.595 243.528 395.955C241.908 396.285 240.018 396.45 237.858 396.45ZM265.986 396.45C262.986 396.45 260.631 395.97 258.921 395.01C257.241 394.05 256.056 392.745 255.366 391.095C254.706 389.445 254.376 387.585 254.376 385.515C254.376 383.415 254.721 381.54 255.411 379.89C256.131 378.24 257.331 376.935 259.011 375.975C260.691 374.985 263.016 374.49 265.986 374.49C268.956 374.49 271.281 374.985 272.961 375.975C274.641 376.935 275.826 378.24 276.516 379.89C277.236 381.54 277.596 383.415 277.596 385.515C277.596 387.585 277.251 389.445 276.561 391.095C275.901 392.745 274.731 394.05 273.051 395.01C271.371 395.97 269.016 396.45 265.986 396.45ZM265.986 393.255C267.846 393.255 269.286 392.955 270.306 392.355C271.326 391.755 272.031 390.885 272.421 389.745C272.811 388.575 273.006 387.165 273.006 385.515C273.006 383.865 272.796 382.455 272.376 381.285C271.986 380.115 271.281 379.215 270.261 378.585C269.271 377.955 267.846 377.64 265.986 377.64C264.156 377.64 262.731 377.97 261.711 378.63C260.691 379.26 259.971 380.175 259.551 381.375C259.161 382.545 258.966 383.94 258.966 385.56C258.966 387.15 259.161 388.53 259.551 389.7C259.941 390.84 260.646 391.725 261.666 392.355C262.686 392.955 264.126 393.255 265.986 393.255ZM281.418 396C281.628 396 281.823 395.79 282.003 395.37C282.213 394.95 282.318 394.26 282.318 393.3V367.65C282.318 366.69 282.213 366.015 282.003 365.625C281.823 365.205 281.628 364.98 281.418 364.95C282.738 364.95 283.878 364.86 284.838 364.68C285.828 364.47 286.518 364.26 286.908 364.05V393.3C286.908 394.26 286.998 394.95 287.178 395.37C287.388 395.79 287.598 396 287.808 396H281.418ZM301.676 396.45C299.936 396.45 298.406 396.15 297.086 395.55C295.796 394.92 294.791 393.855 294.071 392.355C293.381 390.825 293.036 388.71 293.036 386.01V377.64C293.036 376.68 292.931 375.99 292.721 375.57C292.541 375.15 292.346 374.94 292.136 374.94H298.571C298.361 374.94 298.136 375.15 297.896 375.57C297.686 375.99 297.581 376.68 297.581 377.64V386.64C297.581 389.19 298.031 390.93 298.931 391.86C299.831 392.79 301.016 393.255 302.486 393.255C303.956 393.255 305.231 392.895 306.311 392.175C307.391 391.455 308.231 390.465 308.831 389.205C309.461 387.945 309.776 386.52 309.776 384.93V377.64C309.776 376.68 309.671 376.005 309.461 375.615C309.281 375.195 309.086 374.97 308.876 374.94H314.366V393.3C314.366 394.26 314.456 394.95 314.636 395.37C314.846 395.79 315.056 396 315.266 396H309.776V393.3L309.866 392.4L309.776 392.31C309.596 392.67 309.296 393.09 308.876 393.57C308.456 394.02 307.901 394.47 307.211 394.92C306.551 395.37 305.756 395.73 304.826 396C303.896 396.3 302.846 396.45 301.676 396.45ZM327.894 396.45C325.824 396.45 324.324 396.015 323.394 395.145C322.464 394.245 321.999 392.79 321.999 390.78V378.09H317.949V374.94C319.329 374.94 320.409 374.775 321.189 374.445C321.969 374.085 322.524 373.47 322.854 372.6C323.184 371.73 323.349 370.515 323.349 368.955H326.589V374.94H335.184C334.974 375.24 334.764 375.69 334.554 376.29C334.374 376.86 334.284 377.46 334.284 378.09H326.589V390.105C326.589 391.485 326.844 392.355 327.354 392.715C327.864 393.075 328.509 393.255 329.289 393.255C330.039 393.255 330.729 393.105 331.359 392.805C332.019 392.475 332.589 392.085 333.069 391.635C333.579 391.185 333.969 390.75 334.239 390.33V391.725L334.689 394.29C334.389 394.59 333.924 394.92 333.294 395.28C332.664 395.61 331.899 395.88 330.999 396.09C330.099 396.33 329.064 396.45 327.894 396.45ZM337.708 396C337.918 396 338.113 395.79 338.293 395.37C338.503 394.95 338.608 394.26 338.608 393.3V377.64C338.608 376.68 338.503 376.005 338.293 375.615C338.113 375.195 337.918 374.97 337.708 374.94H343.198V393.3C343.198 394.26 343.288 394.95 343.468 395.37C343.678 395.79 343.888 396 344.098 396H337.708ZM340.453 370.62C339.583 370.62 338.908 370.38 338.428 369.9C337.948 369.39 337.708 368.805 337.708 368.145C337.708 367.455 337.933 366.87 338.383 366.39C338.863 365.91 339.553 365.67 340.453 365.67C341.353 365.67 342.028 365.91 342.478 366.39C342.958 366.87 343.198 367.455 343.198 368.145C343.198 368.805 342.958 369.39 342.478 369.9C341.998 370.38 341.323 370.62 340.453 370.62ZM359.062 396.45C356.062 396.45 353.707 395.97 351.997 395.01C350.317 394.05 349.132 392.745 348.442 391.095C347.782 389.445 347.452 387.585 347.452 385.515C347.452 383.415 347.797 381.54 348.487 379.89C349.207 378.24 350.407 376.935 352.087 375.975C353.767 374.985 356.092 374.49 359.062 374.49C362.032 374.49 364.357 374.985 366.037 375.975C367.717 376.935 368.902 378.24 369.592 379.89C370.312 381.54 370.672 383.415 370.672 385.515C370.672 387.585 370.327 389.445 369.637 391.095C368.977 392.745 367.807 394.05 366.127 395.01C364.447 395.97 362.092 396.45 359.062 396.45ZM359.062 393.255C360.922 393.255 362.362 392.955 363.382 392.355C364.402 391.755 365.107 390.885 365.497 389.745C365.887 388.575 366.082 387.165 366.082 385.515C366.082 383.865 365.872 382.455 365.452 381.285C365.062 380.115 364.357 379.215 363.337 378.585C362.347 377.955 360.922 377.64 359.062 377.64C357.232 377.64 355.807 377.97 354.787 378.63C353.767 379.26 353.047 380.175 352.627 381.375C352.237 382.545 352.042 383.94 352.042 385.56C352.042 387.15 352.237 388.53 352.627 389.7C353.017 390.84 353.722 391.725 354.742 392.355C355.762 392.955 357.202 393.255 359.062 393.255ZM374.314 396C374.524 396 374.719 395.79 374.899 395.37C375.109 394.95 375.214 394.26 375.214 393.3V378.09C375.214 377.13 375.109 376.455 374.899 376.065C374.719 375.645 374.524 375.42 374.314 375.39C375.634 375.39 376.774 375.3 377.734 375.12C378.724 374.91 379.414 374.7 379.804 374.49V377.235L379.714 377.82L379.804 377.91C380.254 377.34 380.824 376.8 381.514 376.29C382.234 375.78 383.119 375.36 384.169 375.03C385.219 374.67 386.449 374.49 387.859 374.49C390.649 374.49 392.779 375.285 394.249 376.875C395.749 378.465 396.499 380.955 396.499 384.345V393.3C396.499 394.26 396.589 394.95 396.769 395.37C396.979 395.79 397.189 396 397.399 396H391.009C391.219 396 391.414 395.79 391.594 395.37C391.804 394.95 391.909 394.26 391.909 393.3V384.48C391.909 382.71 391.684 381.33 391.234 380.34C390.784 379.35 390.154 378.66 389.344 378.27C388.564 377.85 387.649 377.64 386.599 377.64C385.489 377.64 384.409 377.88 383.359 378.36C382.309 378.84 381.454 379.605 380.794 380.655C380.134 381.705 379.804 383.115 379.804 384.885V393.3C379.804 394.26 379.894 394.95 380.074 395.37C380.284 395.79 380.494 396 380.704 396H374.314ZM412.908 396.45C410.088 396.45 407.718 396.3 405.798 396C403.908 395.7 402.618 395.4 401.928 395.1V394.2L400.983 390.33C401.763 390.96 403.128 391.62 405.078 392.31C407.058 392.97 409.458 393.3 412.278 393.3C414.138 393.3 415.533 393.18 416.463 392.94C417.393 392.67 418.008 392.325 418.308 391.905C418.608 391.455 418.758 390.96 418.758 390.42C418.758 389.79 418.533 389.295 418.083 388.935C417.663 388.545 416.853 388.23 415.653 387.99C414.483 387.72 412.743 387.45 410.433 387.18C407.913 386.88 405.963 386.445 404.583 385.875C403.233 385.305 402.303 384.585 401.793 383.715C401.283 382.815 401.028 381.75 401.028 380.52C401.028 379.56 401.283 378.615 401.793 377.685C402.303 376.755 403.248 375.99 404.628 375.39C406.038 374.79 408.033 374.49 410.613 374.49C413.403 374.49 415.743 374.64 417.633 374.94C419.553 375.24 420.858 375.54 421.548 375.84V376.74L422.448 380.16C421.698 379.62 420.333 379.065 418.353 378.495C416.373 377.925 413.988 377.64 411.198 377.64C408.978 377.64 407.493 377.895 406.743 378.405C405.993 378.885 405.618 379.515 405.618 380.295C405.618 380.745 405.708 381.15 405.888 381.51C406.068 381.84 406.428 382.14 406.968 382.41C407.538 382.68 408.378 382.92 409.488 383.13C410.628 383.34 412.143 383.55 414.033 383.76C416.583 384.03 418.518 384.45 419.838 385.02C421.158 385.59 422.058 386.31 422.538 387.18C423.048 388.02 423.303 389.01 423.303 390.15C423.303 391.38 422.958 392.475 422.268 393.435C421.608 394.365 420.513 395.1 418.983 395.64C417.453 396.18 415.428 396.45 412.908 396.45Z" fill="#0965C0"/>
<g id="Group 2">
<g id="Group 1">
<rect id="Rectangle 6" width="149.209" height="28.7958" transform="matrix(0.656834 0.754035 -0.737449 0.675402 192.81 173.819)" fill="#0965C0"/>
</g>
<path id="Subtract" fill-rule="evenodd" clip-rule="evenodd" d="M285.622 280.275H102.055L75.3379 313.487L312.242 310.737L285.622 280.275ZM337.474 310.444L421.482 309.468L395.893 280.275H311.11L337.474 310.444Z" fill="#0965C0"/>
<path id="Subtract_2" fill-rule="evenodd" clip-rule="evenodd" d="M75 314L158.021 208.143L176.915 229.689L113.399 310.862L75 314ZM189.431 213.693L169.913 192.98L242.549 100.365L249.896 109.375L244.882 122.342L257.298 118.453L260.695 122.618L189.431 213.693Z" fill="#0965C0"/>
<path id="Subtract_3" fill-rule="evenodd" clip-rule="evenodd" d="M284.153 147.778L242.906 100L224.405 124.443L262.636 168.018L284.153 147.778ZM298.423 164.308L277.033 184.428L386.999 309.768H424L298.423 164.308Z" fill="#0965C0"/>
</g>
</g>
</svg>
